:SAMPLES-PER-SECOND 24
:FULLY-SPECIFIED
:DEGREES
126
root  -0.685452 38.182 28.9398 7.40404 -1.19771 -2.10707
RightUpLeg  -7.39287 -24.8858 -2.97137
RightLeg  52.6704 -10.5845 -15.0985
RightFoot  -1.04727 -1.33658 16.3166
RightToes  -2.08645e-008 3.77894e-005 6.81332e-007
Spine  -5.14711 7.0781 11.3829
Spine1  6.39463 10.2346 -14.6848
HEad  -28.6313 3.95505 -5.71837
LeftShoulder1  7.17277 -12.8526 -37.7518
LeftArm  -2.19526 20.3263 -28.9748
LeftForeArm  166.905 -70.1367 -152.784
LeftHand  -0.53289 -1.379 9.29828
RightShoulder  4.04377 6.89505 32.9978
RightArm  12.0103 -5.6506 31.7774
RightForeArm  86.6103 80.1051 75.1933
RightHand  -0.580332 7.42424 -5.60544
LeftUpLeg  -27.8542 8.26123 -7.25523
LeftLeg  30.7818 10.8901 7.28071
LeftFoot  -9.78089 -0.021361 4.85967
LeftToes  1.24767e-006 1.47042e-008 1.32732e-009
127
root  -0.801423 37.6144 29.6735 4.06845 5.54033 -1.82028
RightUpLeg  -17.2875 -23.1664 -3.87754
RightLeg  71.7667 -4.7018 -16.3087
RightFoot  15.0821 -1.20866 5.82264
RightToes  -2.08645e-008 3.77894e-005 6.81332e-007
Spine  -3.15217 7.46089 7.39506
Spine1  7.27556 10.937 -13.9374
HEad  -27.7526 -2.16588 -0.532562
LeftShoulder1  7.51484 -13.1982 -38.8525
LeftArm  -4.63643 16.3055 -29.5944
LeftForeArm  163.683 -71.4152 -150.398
LeftHand  -0.587281 -1.17526 10.5309
RightShoulder  4.2454 7.00761 34.4932
RightArm  7.50499 -9.22569 30.619
RightForeArm  76.354 79.4212 64.143
RightHand  -0.430597 7.71081 -4.17511
LeftUpLeg  -25.8005 3.47839 -6.76195
LeftLeg  36.6295 9.27644 7.68403
LeftFoot  -13.3884 0.135481 3.22908
LeftToes  1.24767e-006 1.47042e-008 1.32732e-009
128
root  -1.04108 37.4609 30.3658 0.231873 11.4325 -3.71704
RightUpLeg  -26.7728 -19.9872 -3.07499
RightLeg  86.1402 -0.122294 -12.3215
RightFoot  16.2296 -0.123328 0.96287
RightToes  -2.08645e-008 3.77894e-005 6.81332e-007
Spine  -2.02542 7.14589 4.01898
Spine1  9.06893 10.1698 -11.3412
HEad  -26.3275 -5.67328 3.06367
LeftShoulder1  7.35083 -13.0272 -38.3471
LeftArm  -5.86868 11.5622 -29.7224
LeftForeArm  161.143 -71.8655 -149.279
LeftHand  -0.634113 -0.800227 12.0169
RightShoulder  4.28567 7.02143 34.8194
RightArm  5.44904 -12.1171 30.7077
RightForeArm  74.7656 79.2283 61.4925
RightHand  -0.408751 7.74375 -3.97346
LeftUpLeg  -22.5204 0.663096 -4.34923
LeftLeg  39.5559 7.09521 6.63168
LeftFoot  -15.0664 0.204348 3.50114
LeftToes  1.24767e-006 1.47042e-008 1.32732e-009
129
root  -1.22299 38.0642 31.1692 -4.49409 18.4977 -8.55257
RightUpLeg  -34.6556 -19.2079 -1.57215
RightLeg  94.9995 1.72158 -11.2617
RightFoot  9.9471 -0.226645 1.60176
RightToes  -2.08645e-008 3.77894e-005 6.81332e-007
Spine  -2.65199 5.25743 2.06285
Spine1  11.3338 7.082 -6.18578
HEad  -23.7156 -7.22596 5.50604
LeftShoulder1  7.13943 -12.8282 -37.6245
LeftArm  -5.95693 6.18086 -28.1526
LeftForeArm  161.503 -71.6829 -149.644
LeftHand  -0.628364 -0.508336 12.4713
RightShoulder  4.27045 6.99621 34.7729
RightArm  5.23293 -15.6665 30.3602
RightForeArm  80.5433 79.6836 65.7269
RightHand  -0.369364 8.30012 -3.50404
LeftUpLeg  -16.983 -5.56445 0.587957
LeftLeg  37.4527 7.05929 6.13733
LeftFoot  -14.5935 0.185024 3.37056
LeftToes  1.24767e-006 1.47042e-008 1.32732e-009
130
root  -1.52428 39.2608 31.8529 -10.47 26.6107 -15.3382
RightUpLeg  -41.5048 -20.4376 -1.42047
RightLeg  98.9793 2.47284 -10.9515
RightFoot  6.15346 -0.419003 2.95575
RightToes  -2.08645e-008 3.77894e-005 6.81332e-007
Spine  -0.86179 2.3968 -0.973537
Spine1  10.4565 2.35382 0.52049
HEad  -20.6759 -8.60674 8.08754
LeftShoulder1  6.82803 -12.5661 -36.4363
LeftArm  -4.86027 0.642774 -27.2837
LeftForeArm  161.554 -71.9825 -149.135
LeftHand  -0.598696 -0.613903 11.6912
RightShoulder  4.37076 7.07015 35.4267
RightArm  5.89527 -21.0735 28.3904
RightForeArm  88.6119 80.2009 73.8666
RightHand  -0.342366 8.3467 -3.27017
LeftUpLeg  -11.8527 -12.6705 6.59094
LeftLeg  32.5949 5.88783 4.42279
LeftFoot  -10.283 0.042131 2.18747
LeftToes  1.24767e-006 1.47042e-008 1.32732e-009
131
root  -1.9131 40.7965 32.3768 -18.0177 32.8043 -24.0184
RightUpLeg  -46.43 -21.0457 -2.41
RightLeg  99.4572 2.33243 -9.79563
RightFoot  1.83531 -0.333641 2.97652
RightToes  -2.08645e-008 3.77894e-005 6.81332e-007
Spine  3.07182 -0.0315942 -3.47483
Spine1  8.20964 -2.12503 8.70956
HEad  -18.3965 -9.29665 10.1923
LeftShoulder1  6.36232 -12.0635 -34.8528
LeftArm  -3.50345 -4.47851 -28.3493
LeftForeArm  160.029 -72.4655 -148.037
LeftHand  -0.592123 -1.10861 10.7224
RightShoulder  4.34004 7.03825 35.2646
RightArm  6.967 -26.0076 26.6657
RightForeArm  90.9728 80.3006 77.213
RightHand  -0.350435 7.88935 -3.42555
LeftUpLeg  -8.56894 -13.881 14.2245
LeftLeg  27.1687 0.501579 0.659213
LeftFoot  -2.3433 -0.13331 1.78082
LeftToes  1.24767e-006 1.47042e-008 1.32732e-009
132
root  -2.30082 42.0124 32.7139 -27.1155 37.2874 -34.5593
RightUpLeg  -49.6529 -22.6751 -5.21453
RightLeg  98.4814 1.79315 -7.87454
RightFoot  -1.03378 -0.523244 5.71758
RightToes  -2.08645e-008 3.77894e-005 6.81332e-007
Spine  8.28153 -2.31882 -3.44236
Spine1  5.34798 -6.07955 16.3861
HEad  -16.8497 -9.16305 10.9423
LeftShoulder1  5.95886 -11.5524 -33.5783
LeftArm  -2.18296 -9.00076 -29.6907
LeftForeArm  159.484 -72.5357 -147.822
LeftHand  -0.567422 -1.73966 9.41841
RightShoulder  4.12311 6.84286 33.9606
RightArm  8.06164 -29.6401 24.801
RightForeArm  91.9822 80.3137 79.8105
RightHand  -0.312729 7.49877 -3.17547
LeftUpLeg  -8.48838 -8.40175 22.2153
LeftLeg  24.477 -1.72134 -0.527081
LeftFoot  4.98833 0.0244068 -0.381756
LeftToes  1.24767e-006 1.47042e-008 1.32732e-009
133
root  -2.59122 42.7472 33.0242 -36.7268 39.7309 -45.6902
RightUpLeg  -51.3753 -25.6389 -10.0205
RightLeg  96.4068 1.38001 -7.14875
RightFoot  0.642394 -0.765676 7.34992
RightToes  -2.08645e-008 3.77894e-005 6.81332e-007
Spine  12.4495 -4.31415 -0.569387
Spine1  2.2968 -8.4859 20.3725
HEad  -15.7494 -9.92626 11.1088
LeftShoulder1  5.39746 -10.9654 -31.3018
LeftArm  0.0695704 -14.1676 -32.6377
LeftForeArm  158.577 -73.3717 -146.016
LeftHand  -0.50016 -2.30748 7.74994
RightShoulder  4.00754 6.76652 33.1355
RightArm  9.46344 -33.2265 20.2138
RightForeArm  102.175 80.3238 92.709
RightHand  -0.301592 7.21509 -3.13228
LeftUpLeg  -9.11053 2.40299 28.0284
LeftLeg  21.0905 6.30999 2.93722
LeftFoot  9.23577 0.50064 -3.12498
LeftToes  1.24767e-006 1.47042e-008 1.32732e-009
134
root  -2.7594 42.8653 33.3687 -44.4594 39.7789 -54.9452
RightUpLeg  -52.11 -28.3559 -16.0299
RightLeg  91.4545 0.899286 -10.1085
RightFoot  1.98191 -0.698285 6.07854
RightToes  -2.08645e-008 3.77894e-005 6.81332e-007
Spine  13.6601 -5.0075 2.50959
Spine1  0.599302 -9.21674 23.0697
HEad  -15.4568 -12.1563 11.0624
LeftShoulder1  4.61817 -10.1337 -27.7775
LeftArm  3.50591 -21.1447 -38.4308
LeftForeArm  153.817 -75.5003 -140.022
LeftHand  -0.468326 -2.85829 6.8213
RightShoulder  3.91884 6.73997 32.371
RightArm  10.9321 -36.858 13.7321
RightForeArm  119.942 79.4676 112.434
RightHand  -0.395263 7.205 -3.98583
LeftUpLeg  -8.37952 16.5885 31.3254
LeftLeg  14.2797 14.2082 4.46293
LeftFoot  8.46088 -0.0673541 0.154727
LeftToes  1.24767e-006 1.47042e-008 1.32732e-009
135
root  -2.96592 42.347 33.6682 -50.1423 38.9854 -61.4953
RightUpLeg  -50.5225 -29.8634 -23.7406
RightLeg  81.0255 -1.35328 -13.1814
RightFoot  2.45829 -0.496821 4.23275
RightToes  -2.08645e-008 3.77894e-005 6.81332e-007
Spine  14.9552 -4.58707 3.94048
Spine1  -1.28208 -8.79639 26.2159
HEad  -16.27 -14.6334 11.1913
LeftShoulder1  4.06825 -9.32041 -25.5853
LeftArm  7.03589 -29.0263 -42.58
LeftForeArm  148.466 -77.0319 -134.024
LeftHand  -0.476177 -3.3674 6.5624
RightShoulder  3.72364 6.54304 31.165
RightArm  11.3238 -39.362 8.32939
RightForeArm  132.996 77.971 126.105
RightHand  -0.581461 7.43297 -5.61101
LeftUpLeg  -7.88242 21.7726 33.424
LeftLeg  9.58808 16.8576 4.14023
LeftFoot  4.18344 -0.682281 4.86955
LeftToes  1.24767e-006 1.47042e-008 1.32732e-009
136
root  -3.2825 41.5075 34.0055 -53.6444 37.1669 -65.6859
RightUpLeg  -46.426 -27.2764 -31.1066
RightLeg  64.0668 -6.41837 -14.6725
RightFoot  3.91344 -0.198631 1.68266
RightToes  -2.08645e-008 3.77894e-005 6.81332e-007
Spine  15.7584 -3.5364 5.33486
Spine1  -2.0348 -7.6276 27.9642
HEad  -18.6214 -16.5789 12.671
LeftShoulder1  4.03273 -9.11355 -25.8326
LeftArm  8.79872 -36.027 -41.7902
LeftForeArm  149.626 -76.9717 -134.512
LeftHand  -0.438737 -3.57565 5.93862
RightShoulder  3.56657 6.31168 30.4323
RightArm  8.59387 -39.0037 6.61754
RightForeArm  136.611 77.3569 129.869
RightHand  -0.654191 7.50133 -6.23776
LeftUpLeg  -9.6343 15.6104 36.7928
LeftLeg  12.7603 20.884 7.03554
LeftFoot  -1.73101 -0.456699 5.55219
LeftToes  1.24767e-006 1.47042e-008 1.32732e-009
137
root  -3.64057 40.8513 34.6693 -55.2049 35.483 -67.5365
RightUpLeg  -40.2603 -18.7228 -38.6224
RightLeg  43.1963 -16.5038 -15.9675
RightFoot  3.65545 0.227724 -1.57768
RightToes  -2.08645e-008 3.77894e-005 6.81332e-007
Spine  15.0791 -1.87888 4.50947
Spine1  -1.04874 -6.31881 29.2339
HEad  -21.6567 -18.058 15.3114
LeftShoulder1  4.31022 -9.53824 -26.9623
LeftArm  8.76686 -38.3838 -39.0796
LeftForeArm  155.39 -75.7854 -139.555
LeftHand  -0.381966 -3.53612 5.22451
RightShoulder  3.58398 6.26525 30.7867
RightArm  2.6099 -35.795 8.82729
RightForeArm  134.615 78.0129 126.356
RightHand  -0.683673 7.20983 -6.63789
LeftUpLeg  -11.5479 9.71483 41.0542
LeftLeg  18.6127 25.6579 9.51262
LeftFoot  -6.31145 -0.207079 5.60592
LeftToes  1.24767e-006 1.47042e-008 1.32732e-009
138
root  -3.91994 40.7354 35.5276 -56.1907 34.7565 -68.7303
RightUpLeg  -33.9739 -6.518 -45.8162
RightLeg  21.9914 -28.8671 -12.5825
RightFoot  0.276395 0.288675 -2.82846
RightToes  -2.08645e-008 3.77894e-005 6.81332e-007
Spine  13.1542 -0.757651 2.18286
Spine1  0.661099 -5.72061 30.0371
HEad  -23.445 -19.1284 17.6746
LeftShoulder1  4.61947 -10.0906 -27.9209
LeftArm  8.89496 -33.4501 -37.3383
LeftForeArm  157.803 -74.7524 -142.794
LeftHand  -0.348526 -3.55931 4.77824
RightShoulder  3.78915 6.48224 32.0574
RightArm  -3.38953 -31.1667 13.2311
RightForeArm  129.304 79.1174 118.521
RightHand  -0.694121 7.17572 -6.75084
LeftUpLeg  -12.0868 9.94706 43.5159
LeftLeg  19.6925 25.7681 10.0764
LeftFoot  -7.10277 -0.207109 6.71112
LeftToes  1.24767e-006 1.47042e-008 1.32732e-009
139
root  -4.10889 40.8544 36.2454 -57.9462 34.5026 -70.3039
RightUpLeg  -32.0984 -15.7919 -36.1772
RightLeg  3.51752 -10.6202 -10.4511
RightFoot  -3.68687 -0.110129 1.46502
RightToes  -2.08645e-008 3.77894e-005 6.81332e-007
Spine  12.3731 -0.404366 1.15547
Spine1  1.07588 -5.18294 29.8931
HEad  -23.6266 -20.5667 18.9047
LeftShoulder1  5.10933 -10.7834 -29.7418
LeftArm  9.31437 -23.5033 -35.2679
LeftForeArm  154.294 -75.1829 -141.036
LeftHand  -0.328902 -3.76366 4.43602
RightShoulder  3.92148 6.61645 32.8645
RightArm  -5.93713 -27.0539 18.2227
RightForeArm  123.021 79.7425 111.512
RightHand  -0.656879 6.74377 -6.61614
LeftUpLeg  -11.5858 6.03821 45.6635
LeftLeg  19.1115 27.9314 10.4865
LeftFoot  -6.03357 -0.315109 7.57036
LeftToes  1.24767e-006 1.47042e-008 1.32732e-009
140
root  -4.28154 41.0043 36.657 -59.2344 35.2452 -71.5706
RightUpLeg  -32.3613 -20.6663 -29.9966
RightLeg  0.0590717 -1.53421 -9.2911
RightFoot  -4.09588 -0.303452 4.34936
RightToes  -2.08645e-008 3.77894e-005 6.81332e-007
Spine  11.682 -0.392213 1.16822
Spine1  1.67471 -4.92088 28.0549
HEad  -24.0985 -22.5466 20.3154
LeftShoulder1  5.66669 -11.4487 -31.9008
LeftArm  8.64074 -12.6751 -31.8446
LeftForeArm  147.85 -76.853 -134.534
LeftHand  -0.317533 -3.95595 4.21529
RightShoulder  3.98547 6.68029 33.2492
RightArm  -4.59261 -23.6488 21.976
RightForeArm  121.29 79.8934 109.443
RightHand  -0.570444 6.67963 -5.81991
LeftUpLeg  -11.2542 2.7103 45.8662
LeftLeg  17.3571 29.7979 10.7989
LeftFoot  -4.58499 -0.449045 8.06112
LeftToes  1.24767e-006 1.47042e-008 1.32732e-009
